<svg width="25" height="25" viewBox="0 0 25 25" fill="none" xmlns="http://www.w3.org/2000/svg">
<mask id="mask0_2214_4472" style="mask-type:luminance" maskUnits="userSpaceOnUse" x="0" y="0" width="25" height="25">
<path d="M24.323 0.340981H0.322998V24.592H24.323V0.340981Z" fill="white"/>
</mask>
<g mask="url(#mask0_2214_4472)">
<path d="M20.7956 21.0217C23.0587 18.75 24.3274 15.6729 24.323 12.4664C24.3206 12.2685 24.2403 12.0795 24.0995 11.9404C23.9587 11.8013 23.7688 11.7233 23.5709 11.7233C23.3728 11.7233 23.1829 11.8013 23.0421 11.9404C22.9013 12.0795 22.821 12.2685 22.8186 12.4664C22.8218 15.2765 21.7094 17.973 19.726 19.9635C18.7631 20.952 17.612 21.7378 16.3404 22.2743C15.069 22.8107 13.703 23.0871 12.323 23.0871C10.943 23.0871 9.57693 22.8107 8.30548 22.2743C7.03402 21.7378 5.88289 20.952 4.91999 19.9635C2.93917 17.971 1.82734 15.2756 1.82734 12.466C1.82734 9.65635 2.93917 6.96093 4.91999 4.9684C5.87728 3.98745 7.01977 3.20629 8.28123 2.6702C9.54269 2.13412 10.898 1.85378 12.2686 1.84544C12.5613 1.8546 12.8388 1.97775 13.0419 2.1886C13.2451 2.39944 13.3579 2.68132 13.3561 2.97411C13.3544 3.2669 13.2384 3.54744 13.0328 3.75592C12.8272 3.96439 12.5483 4.08429 12.2556 4.09005C12.2285 4.09011 12.2014 4.09161 12.1745 4.09455C10.0892 4.16171 8.11062 5.0324 6.65244 6.52456C5.11249 8.07477 4.24821 10.1712 4.24821 12.3562C4.24821 14.5414 5.11249 16.6377 6.65244 18.1879C7.40475 18.9586 8.3036 19.571 9.2961 19.9891C10.2886 20.4072 11.3547 20.6225 12.4316 20.6225C13.5086 20.6225 14.5747 20.4072 15.5672 19.9891C16.5596 19.571 17.4585 18.9586 18.2108 18.1879C19.7532 16.6393 20.6178 14.5419 20.6147 12.3562C20.6179 12.012 20.5528 11.6704 20.4233 11.3514C20.2937 11.0325 20.1022 10.7424 19.8599 10.4978C19.6175 10.2532 19.3291 10.0591 19.0114 9.92661C18.6936 9.79412 18.3528 9.72591 18.0084 9.72591C17.6641 9.72591 17.3233 9.79412 17.0055 9.92661C16.6877 10.0591 16.3994 10.2532 16.157 10.4978C15.9146 10.7424 15.7232 11.0325 15.5936 11.3514C15.4641 11.6704 15.399 12.012 15.4021 12.3562C15.4021 12.3782 15.4036 12.3988 15.4053 12.4199C15.4036 12.441 15.4021 12.4621 15.4021 12.4836C15.4071 13.0838 15.2335 13.6719 14.9036 14.1734C14.5737 14.6748 14.1023 15.0669 13.5492 15.3001C12.9961 15.5331 12.3861 15.5967 11.7969 15.4826C11.2075 15.3684 10.6654 15.082 10.2393 14.6592C9.81309 14.2365 9.52208 13.6968 9.40317 13.1085C9.28426 12.5201 9.3428 11.9097 9.57136 11.3547C9.79991 10.7997 10.1882 10.325 10.6869 9.99104C11.1856 9.65705 11.7724 9.47873 12.3726 9.47871C12.4721 9.47992 12.5709 9.46134 12.6632 9.42409C12.7556 9.38682 12.8395 9.33161 12.9103 9.26165C12.9811 9.19168 13.0374 9.10836 13.0758 9.01649C13.1142 8.92464 13.1339 8.82608 13.1339 8.72653C13.1339 8.62699 13.1142 8.52843 13.0758 8.43658C13.0374 8.34471 12.9811 8.26139 12.9103 8.19142C12.8395 8.12146 12.7556 8.06624 12.6632 8.02898C12.5709 7.99172 12.4721 7.97315 12.3726 7.97436C11.4818 7.9793 10.6124 8.24797 9.87419 8.74646C9.13594 9.24495 8.56186 9.95094 8.22439 10.7753C7.88694 11.5997 7.80121 12.5056 7.97802 13.3787C8.15484 14.2518 8.58628 15.0529 9.21792 15.6811C9.84955 16.3091 10.6531 16.7361 11.5272 16.9081C12.4011 17.08 13.3066 16.9893 14.1291 16.6472C14.9516 16.3052 15.6544 15.7273 16.1488 14.9862C16.6432 14.2452 16.9069 13.3743 16.9069 12.4836C16.9069 12.4616 16.9055 12.441 16.9037 12.4199C16.9055 12.3988 16.9069 12.3778 16.9069 12.3562C16.904 12.2097 16.9303 12.064 16.9844 11.9277C17.0384 11.7915 17.1192 11.6673 17.2217 11.5627C17.3244 11.458 17.4469 11.3748 17.582 11.3181C17.7171 11.2613 17.8623 11.2321 18.0089 11.2321C18.1554 11.2321 18.3006 11.2613 18.4358 11.3181C18.5709 11.3748 18.6934 11.458 18.796 11.5627C18.8985 11.6673 18.9793 11.7915 19.0333 11.9277C19.0874 12.064 19.1138 12.2097 19.1108 12.3562C19.1128 14.1456 18.4045 15.8626 17.1414 17.1301C16.529 17.7593 15.7968 18.2593 14.9879 18.6007C14.179 18.9422 13.3099 19.1181 12.4319 19.1181C11.5539 19.1181 10.6849 18.9422 9.87597 18.6007C9.0671 18.2593 8.33485 17.7593 7.72244 17.1301C6.46106 15.8615 5.75303 14.1452 5.75303 12.3562C5.75303 10.5673 6.46106 8.85099 7.72244 7.58238C8.33533 6.95401 9.06761 6.45447 9.87627 6.11308C10.6849 5.77169 11.5536 5.59535 12.4314 5.5944C12.4989 5.59422 12.5661 5.58492 12.6312 5.56674C13.2716 5.46853 13.853 5.13736 14.2642 4.63676C14.6754 4.13614 14.8872 3.50135 14.8591 2.85416C14.831 2.20695 14.5648 1.59292 14.1118 1.12985C13.6588 0.666771 13.0508 0.387259 12.4044 0.344932C12.3774 0.34199 12.3502 0.340488 12.323 0.340431C12.3078 0.340431 12.2928 0.340431 12.2776 0.340431C12.2702 0.340431 12.2629 0.340431 12.2557 0.340431C12.2484 0.340431 12.241 0.341309 12.2337 0.341528C10.67 0.353826 9.12417 0.675537 7.68536 1.28811C6.24654 1.90068 4.94323 2.79201 3.85054 3.9107C1.59122 6.18481 0.323181 9.26031 0.323181 12.466C0.323181 15.6716 1.59122 18.7471 3.85054 21.0212C4.95333 22.1512 6.27104 23.0494 7.72611 23.6624C9.18118 24.2756 10.7442 24.5915 12.3232 24.5915C13.9022 24.5915 15.4651 24.2756 16.9203 23.6624C18.3754 23.0494 19.693 22.1512 20.7958 21.0212L20.7956 21.0217Z" fill="url(#paint0_linear_2214_4472)"/>
</g>
<defs>
<linearGradient id="paint0_linear_2214_4472" x1="3.80315" y1="20.9781" x2="19.0544" y2="6.05273" gradientUnits="userSpaceOnUse">
<stop stop-color="#41287B"/>
<stop offset="0.123" stop-color="#462779"/>
<stop offset="0.284" stop-color="#572775"/>
<stop offset="0.465" stop-color="#72266E"/>
<stop offset="0.663" stop-color="#982565"/>
<stop offset="0.87" stop-color="#C82459"/>
<stop offset="0.99" stop-color="#E72452"/>
</linearGradient>
</defs>
</svg>
